<?xml version="1.0" encoding="utf-8"?>
<!-- Generator: Adobe Illustrator 18.0.0, SVG Export Plug-In . SVG Version: 6.00 Build 0)  -->
<!DOCTYPE svg PUBLIC "-//W3C//DTD SVG 1.1//EN" "http://www.w3.org/Graphics/SVG/1.1/DTD/svg11.dtd">
<svg version="1.1" id="Layer_1" xmlns="http://www.w3.org/2000/svg" xmlns:xlink="http://www.w3.org/1999/xlink" x="0px" y="0px"
	 viewBox="0 0 30 30" enable-background="new 0 0 30 30" xml:space="preserve">
<circle cx="15" cy="15" r="15"/>
<g>
	<path fill="#FFFFFF" d="M17,14.6c0.8-0.6,1.3-1.6,1.3-2.6c0-1.8-1.4-3.2-3.2-3.2s-3.2,1.4-3.2,3.2c0,1.1,0.5,2.1,1.3,2.6
		c-1.8,0.7-3.1,2.6-3.1,4.7c0,2.8,10,2.8,10,0C20.1,17.2,18.8,15.3,17,14.6z"/>
	<path fill="#FFFFFF" d="M20.7,14.6c0.6-0.4,1-1.1,1-1.9c0-1.3-1.1-2.4-2.4-2.4c-0.3,0-0.6,0.1-0.8,0.2c0.2,0.4,0.3,0.9,0.3,1.4
		c0,0.9-0.4,1.8-1,2.5c1.7,0.9,2.8,2.8,2.8,4.8c0,0.1,0,0.2,0,0.3c1.4-0.2,2.5-0.6,2.5-1.4C23,16.4,22,15.2,20.7,14.6z"/>
	<path fill="#FFFFFF" d="M9.7,19.2c0-2,1-3.8,2.7-4.7c0,0,0,0,0.1-0.1c-0.6-0.7-1-1.6-1-2.5c0-0.5,0.1-0.9,0.3-1.4
		c-0.3-0.1-0.6-0.2-1-0.2c-1.3,0-2.4,1.1-2.4,2.4c0,0.8,0.4,1.5,1,1.9c-1.3,0.5-2.3,1.8-2.3,3.4c0,0.8,1.2,1.3,2.6,1.4
		C9.7,19.4,9.7,19.3,9.7,19.2z"/>
</g>
</svg>
